<svg width="192" height="192" viewBox="0 0 192 192" fill="none" xmlns="http://www.w3.org/2000/svg">
<path d="M178.208 77.445C174.33 59.2012 164.048 42.5962 149.25 30.69C134.118 18.5824 115.312 11.9904 95.9325 12C73.0875 12 51.75 20.8012 35.7975 36.7837C20.3813 52.2487 11.9325 72.6675 12 94.2637C12.0006 110.097 16.649 125.583 25.3688 138.799L27 141.067L18 180L61.05 169.29C61.05 169.29 61.9125 169.579 62.55 169.822C63.1875 170.066 68.6738 172.17 74.4938 173.797C79.3313 175.147 89.3963 177.172 97.2825 177.172C119.651 177.172 140.539 168.51 156.094 152.775C171.51 137.164 180 116.407 180 94.3087C180.001 88.6399 179.4 82.9869 178.208 77.445ZM60 108C57.6267 108 55.3066 107.296 53.3332 105.978C51.3598 104.659 49.8217 102.785 48.9135 100.592C48.0052 98.3995 47.7676 95.9867 48.2306 93.6589C48.6936 91.3311 49.8365 89.1929 51.5148 87.5147C53.193 85.8365 55.3312 84.6936 57.659 84.2306C59.9867 83.7675 62.3995 84.0052 64.5922 84.9134C66.7849 85.8217 68.6591 87.3598 69.9777 89.3332C71.2962 91.3065 72 93.6266 72 96C72 99.1826 70.7357 102.235 68.4853 104.485C66.2349 106.736 63.1826 108 60 108ZM96 108C93.6267 108 91.3066 107.296 89.3332 105.978C87.3598 104.659 85.8217 102.785 84.9135 100.592C84.0052 98.3995 83.7676 95.9867 84.2306 93.6589C84.6936 91.3311 85.8365 89.1929 87.5148 87.5147C89.193 85.8365 91.3312 84.6936 93.659 84.2306C95.9867 83.7675 98.3995 84.0052 100.592 84.9134C102.785 85.8217 104.659 87.3598 105.978 89.3332C107.296 91.3065 108 93.6266 108 96C108 99.1826 106.736 102.235 104.485 104.485C102.235 106.736 99.1826 108 96 108ZM132 108C129.627 108 127.307 107.296 125.333 105.978C123.36 104.659 121.822 102.785 120.913 100.592C120.005 98.3995 119.768 95.9867 120.231 93.6589C120.694 91.3311 121.837 89.1929 123.515 87.5147C125.193 85.8365 127.331 84.6936 129.659 84.2306C131.987 83.7675 134.4 84.0052 136.592 84.9134C138.785 85.8217 140.659 87.3598 141.978 89.3332C143.296 91.3065 144 93.6266 144 96C144 99.1826 142.736 102.235 140.485 104.485C138.235 106.736 135.183 108 132 108Z" fill="#5F5F5F"/>
</svg>
