<svg width="192" height="192" viewBox="0 0 192 192" fill="none" xmlns="http://www.w3.org/2000/svg">
<g clip-path="url(#clip0_105_13)">
<path d="M124 112H117.68L115.44 109.84C123.28 100.72 128 88.88 128 76C128 47.28 104.72 24 76 24C47.28 24 24 47.28 24 76C24 104.72 47.28 128 76 128C88.88 128 100.72 123.28 109.84 115.44L112 117.68V124L152 163.92L163.92 152L124 112ZM76 112C56.08 112 40 95.92 40 76C40 56.08 56.08 40 76 40C95.92 40 112 56.08 112 76C112 95.92 95.92 112 76 112Z" fill="#5F5F5F"/>
</g>
<defs>
<clipPath id="clip0_105_13">
<rect width="192" height="192" fill="white"/>
</clipPath>
</defs>
</svg>
